<svg width="146" height="39" viewBox="0 0 146 39" fill="none" xmlns="http://www.w3.org/2000/svg">
<path d="M44.7364 13.4937C44.7364 13.0505 44.9026 12.6786 45.235 12.3779C45.5831 12.0613 46.0026 11.903 46.4932 11.903H57.1053C57.1053 12.9476 56.9312 13.7073 56.583 14.1821C56.2348 14.657 55.6729 14.8944 54.8974 14.8944H48.2263V18.6454H54.4463C54.4463 19.69 54.2722 20.4497 53.924 20.9245C53.5758 21.3993 53.014 21.6367 52.2384 21.6367H48.2263V25.5302H55.3959C56.1556 25.5302 56.7096 25.7676 57.0578 26.2424C57.406 26.7172 57.5801 27.4769 57.5801 28.5215H46.4932C46.0026 28.5215 45.5831 28.3711 45.235 28.0704C44.9026 27.7697 44.7364 27.3898 44.7364 26.9309V13.4937ZM61.4702 28.5215C60.9796 28.5215 60.5601 28.3711 60.2119 28.0704C59.8796 27.7697 59.7134 27.3898 59.7134 26.9309V13.4937C59.7134 13.0347 59.8796 12.6548 60.2119 12.3541C60.5601 12.0534 60.9796 11.903 61.4702 11.903H66.6457C68.0701 11.903 69.3283 12.18 70.4204 12.734C71.5125 13.2721 72.3592 14.0397 72.9607 15.0368C73.5779 16.0339 73.8865 17.1735 73.8865 18.4555V21.9216C73.8865 23.2036 73.5779 24.351 72.9607 25.364C72.3592 26.3611 71.5046 27.1366 70.3967 27.6906C69.3046 28.2445 68.0543 28.5215 66.6457 28.5215H61.4702ZM66.4083 25.5302C67.7219 25.5302 68.7111 25.2295 69.3758 24.628C70.0564 24.0266 70.3967 23.1403 70.3967 21.9691V18.408C70.3967 17.2526 70.0564 16.3821 69.3758 15.7965C68.7111 15.1951 67.7219 14.8944 66.4083 14.8944H63.2033V25.5302H66.4083Z" fill="#8508AC"/>
<path d="M76.0119 13.4937C76.0119 13.0347 76.1781 12.6548 76.5104 12.3541C76.8586 12.0534 77.2781 11.903 77.7687 11.903H84.2499C85.4211 11.903 86.4578 12.1405 87.3599 12.6153C88.2621 13.0743 88.9584 13.7232 89.4491 14.562C89.9556 15.4008 90.2088 16.3742 90.2088 17.4821C90.2088 18.6058 89.9635 19.595 89.4728 20.4497C88.9822 21.2885 88.2858 21.9374 87.3837 22.3964C86.4973 22.8554 85.4527 23.0849 84.2499 23.0849H79.5018V26.2186C79.5018 27.0417 79.201 27.6668 78.5996 28.0942C78.014 28.5215 77.1514 28.7352 76.0119 28.7352V13.4937ZM84.2499 20.0698C85.0412 20.0698 85.6506 19.8482 86.0779 19.4051C86.5052 18.9461 86.7189 18.2972 86.7189 17.4584C86.7189 16.6512 86.5052 16.026 86.0779 15.5828C85.6506 15.1397 85.0412 14.9181 84.2499 14.9181H79.5018V20.0698H84.2499ZM92.3568 13.4937C92.3568 13.0347 92.5229 12.6548 92.8553 12.3541C93.2035 12.0534 93.6229 11.903 94.1136 11.903H100.357C102.13 11.903 103.491 12.362 104.441 13.28C105.406 14.1821 105.889 15.4721 105.889 17.1497C105.889 18.0835 105.699 18.867 105.319 19.5C104.955 20.1331 104.385 20.6317 103.61 20.9957V21.0907C104.987 21.7079 105.675 22.8712 105.675 24.5805V26.2186C105.675 27.0417 105.375 27.6668 104.773 28.0942C104.188 28.5215 103.325 28.7352 102.185 28.7352V24.6992C102.185 23.9079 102.027 23.3302 101.711 22.9662C101.41 22.5863 100.943 22.3964 100.31 22.3964H95.7991V26.2186C95.7991 27.0417 95.5063 27.6668 94.9207 28.0942C94.3351 28.5215 93.4805 28.7352 92.3568 28.7352V13.4937ZM100.167 19.4288C100.895 19.4288 101.449 19.231 101.829 18.8353C102.209 18.4396 102.399 17.8699 102.399 17.126C102.399 16.3505 102.217 15.7807 101.853 15.4167C101.505 15.0526 100.943 14.8706 100.167 14.8706H95.7991V19.4288H100.167ZM114.932 28.7352C113.634 28.7352 112.439 28.4819 111.347 27.9754C110.255 27.4532 109.385 26.7568 108.736 25.8863C108.103 25 107.786 24.0503 107.786 23.0374V17.3871C107.786 16.3742 108.103 15.4325 108.736 14.562C109.385 13.6757 110.255 12.9793 111.347 12.4728C112.439 11.9505 113.634 11.6894 114.932 11.6894C116.23 11.6894 117.425 11.9505 118.517 12.4728C119.609 12.9793 120.472 13.6757 121.105 14.562C121.754 15.4325 122.078 16.3742 122.078 17.3871V23.0374C122.078 24.0503 121.754 25 121.105 25.8863C120.472 26.7568 119.609 27.4532 118.517 27.9754C117.425 28.4819 116.23 28.7352 114.932 28.7352ZM114.932 25.6963C116.008 25.6963 116.887 25.4431 117.567 24.9366C118.248 24.4302 118.588 23.7734 118.588 22.9662V17.4584C118.588 16.6512 118.248 15.9943 117.567 15.4879C116.887 14.9814 116.008 14.7282 114.932 14.7282C113.856 14.7282 112.978 14.9814 112.297 15.4879C111.616 15.9943 111.276 16.6512 111.276 17.4584V22.9662C111.276 23.7734 111.616 24.4302 112.297 24.9366C112.978 25.4431 113.856 25.6963 114.932 25.6963ZM124.212 13.4937C124.212 13.0505 124.378 12.6786 124.71 12.3779C125.059 12.0613 125.478 11.903 125.969 11.903H136.771C136.771 12.9476 136.597 13.7073 136.248 14.1821C135.9 14.657 135.338 14.8944 134.563 14.8944H127.702V18.5267H133.922C133.922 19.5713 133.748 20.331 133.399 20.8058C133.051 21.2806 132.489 21.518 131.714 21.518H127.702V26.3373C127.702 27.1762 127.425 27.7855 126.871 28.1654C126.333 28.5452 125.446 28.7352 124.212 28.7352V13.4937ZM139.385 14.2296C139.385 13.4383 139.686 12.821 140.288 12.3779C140.905 11.9189 141.767 11.6894 142.875 11.6894V26.1949C142.875 27.0021 142.567 27.6273 141.949 28.0704C141.348 28.5136 140.493 28.7352 139.385 28.7352V14.2296Z" fill="#FF8A00"/>
<path d="M31.2794 5.18186C31.5772 4.50889 32.3865 3.97923 32.3865 3.97923C31.5439 3.77418 30.6615 3.80235 29.8337 4.06072C29.5007 3.70246 28.1688 0.38117 22.8497 0.943148C23.7226 1.45806 24.4619 2.17137 25.0077 3.02527C25.0077 3.02527 24.6649 3.0042 24.4457 3.00982C18.6855 3.15031 13.7752 8.12381 13.719 13.8897C13.6995 15.7275 14.1416 17.5409 15.0046 19.1636C15.8676 20.7863 17.1241 22.1665 18.6588 23.1778C18.9222 23.3521 19.1382 23.589 19.2875 23.8673C19.4368 24.1456 19.5148 24.4566 19.5144 24.7724V25.118C19.5148 25.5583 19.6898 25.9805 20.0012 26.2919C20.3125 26.6032 20.7347 26.7783 21.175 26.7787H28.2475C28.6878 26.7783 29.11 26.6032 29.4214 26.2919C29.7327 25.9805 29.9078 25.5583 29.9082 25.118V24.771C29.9065 24.4575 29.9827 24.1485 30.1298 23.8717C30.2769 23.5949 30.4904 23.3589 30.7511 23.1848C32.2282 22.2142 33.4494 20.9017 34.3113 19.3587C35.1731 17.8156 35.6502 16.0875 35.702 14.3209C35.7539 12.5542 35.379 10.8011 34.6091 9.21016C33.8392 7.61924 32.697 6.23742 31.2794 5.18186Z" fill="url(#paint0_linear_273_722)"/>
<path style="mix-blend-mode:multiply" d="M25.0976 22.8419C20.2099 22.8419 17.0164 21.85 14.9821 19.1385C15.848 20.7687 17.1081 22.1563 18.6476 23.1749C18.9109 23.3492 19.127 23.5861 19.2763 23.8644C19.4256 24.1427 19.5036 24.4537 19.5032 24.7695V25.1151C19.5035 25.5554 19.6786 25.9776 19.99 26.289C20.3013 26.6003 20.7235 26.7754 21.1638 26.7758H28.2363C28.6766 26.7754 29.0988 26.6003 29.4101 26.289C29.7215 25.9776 29.8966 25.5554 29.8969 25.1151V24.7709C29.8953 24.4574 29.9715 24.1484 30.1186 23.8716C30.2657 23.5948 30.4792 23.3588 30.7399 23.1847C32.3577 22.1167 33.6659 20.6418 34.5332 18.9081C32.6324 21.6154 28.6016 22.8419 25.0976 22.8419Z" fill="url(#paint1_linear_273_722)"/>
<path d="M29.8309 15.8735C30.8357 15.8735 31.6503 14.7733 31.6503 13.4162C31.6503 12.0591 30.8357 10.959 29.8309 10.959C28.826 10.959 28.0115 12.0591 28.0115 13.4162C28.0115 14.7733 28.826 15.8735 29.8309 15.8735Z" fill="#00042D"/>
<path d="M29.3181 12.6379C29.6812 12.6379 29.9756 12.3435 29.9756 11.9804C29.9756 11.6173 29.6812 11.3229 29.3181 11.3229C28.955 11.3229 28.6606 11.6173 28.6606 11.9804C28.6606 12.3435 28.955 12.6379 29.3181 12.6379Z" fill="white"/>
<path d="M19.5256 15.8735C20.5304 15.8735 21.345 14.7733 21.345 13.4162C21.345 12.0591 20.5304 10.959 19.5256 10.959C18.5208 10.959 17.7062 12.0591 17.7062 13.4162C17.7062 14.7733 18.5208 15.8735 19.5256 15.8735Z" fill="#00042D"/>
<path d="M19.0128 12.6379C19.3759 12.6379 19.6703 12.3435 19.6703 11.9804C19.6703 11.6173 19.3759 11.3229 19.0128 11.3229C18.6497 11.3229 18.3553 11.6173 18.3553 11.9804C18.3553 12.3435 18.6497 12.6379 19.0128 12.6379Z" fill="white"/>
<path d="M28.5847 28.7273H20.6987C20.4403 28.7255 20.193 28.622 20.0103 28.4393C19.8276 28.2566 19.7241 28.0093 19.7223 27.7509C19.7245 27.4928 19.8281 27.2458 20.0108 27.0634C20.1935 26.881 20.4406 26.7777 20.6987 26.7759H28.5847C28.8428 26.7777 29.0899 26.881 29.2726 27.0634C29.4553 27.2458 29.5589 27.4928 29.5611 27.7509C29.5593 28.0093 29.4558 28.2566 29.2731 28.4393C29.0904 28.622 28.8431 28.7255 28.5847 28.7273Z" fill="url(#paint2_linear_273_722)"/>
<path d="M25.0723 31.6482H24.3474C23.991 31.6482 23.6434 31.5373 23.3529 31.3308C23.0624 31.1244 22.8433 30.8327 22.7261 30.4961L22.1079 28.7273H27.3062L26.688 30.4961C26.5711 30.8318 26.3529 31.1229 26.0635 31.3292C25.7741 31.5356 25.4278 31.647 25.0723 31.6482Z" fill="url(#paint3_linear_273_722)"/>
<path style="mix-blend-mode:multiply" d="M26.9423 29.7852L27.3118 28.7273H22.1079L22.4774 29.7852H26.9423Z" fill="url(#paint4_linear_273_722)"/>
<path d="M31.5744 6.30298C30.4808 6.30268 29.4065 6.5904 28.4594 7.13719C27.5123 7.68397 26.726 8.47053 26.1794 9.41774C26.0008 9.1647 25.7646 8.95781 25.4902 8.81415C25.2158 8.6705 24.9112 8.59422 24.6015 8.59161C24.2918 8.589 23.9859 8.66014 23.7092 8.79915C23.4324 8.93816 23.1927 9.14105 23.0099 9.39105C22.2026 8.01783 20.8964 7.00922 19.3637 6.57556C17.8309 6.14189 16.1899 6.31664 14.7829 7.06336C13.3758 7.81008 12.3113 9.07113 11.8114 10.5836C11.3114 12.096 11.4145 13.743 12.0993 15.1812C12.7841 16.6195 13.9976 17.7378 15.4868 18.3032C16.9761 18.8685 18.626 18.8371 20.0927 18.2156C21.5594 17.5941 22.7295 16.4304 23.3591 14.9672C23.9887 13.504 24.0292 11.8542 23.4721 10.3619C23.5088 10.0859 23.6466 9.83346 23.8589 9.65332C24.0711 9.47318 24.3426 9.3782 24.6208 9.38677C24.899 9.39534 25.1642 9.50685 25.3649 9.6997C25.5656 9.89256 25.6877 10.153 25.7074 10.4307C25.2599 11.6774 25.2211 13.0342 25.5967 14.3044C25.9723 15.5746 26.7427 16.6921 27.7962 17.4949C28.8498 18.2977 30.1316 18.7441 31.456 18.7693C32.7803 18.7945 34.0782 18.3972 35.1615 17.6351C36.2448 16.8729 37.0572 15.7855 37.4808 14.5305C37.9045 13.2756 37.9174 11.9183 37.5177 10.6555C37.1179 9.39267 36.3264 8.29002 35.2577 7.50742C34.1891 6.72482 32.899 6.30294 31.5744 6.30298ZM17.6303 17.9429C16.5596 17.9432 15.5129 17.626 14.6225 17.0313C13.7321 16.4367 13.0381 15.5913 12.6281 14.6022C12.2182 13.6131 12.1108 12.5246 12.3195 11.4745C12.5282 10.4243 13.0437 9.45964 13.8007 8.70244C14.5577 7.94525 15.5222 7.42954 16.5723 7.22056C17.6224 7.01157 18.7109 7.11869 19.7002 7.52837C20.6894 7.93804 21.5349 8.63187 22.1298 9.5221C22.7247 10.4123 23.0422 11.459 23.0422 12.5297C23.0422 13.9651 22.4721 15.3418 21.4572 16.3569C20.4423 17.3721 19.0658 17.9426 17.6303 17.9429ZM31.5744 17.9429C30.5038 17.9429 29.4572 17.6255 28.567 17.0306C27.6768 16.4358 26.9829 15.5904 26.5732 14.6012C26.1635 13.6121 26.0563 12.5237 26.2652 11.4736C26.474 10.4235 26.9896 9.459 27.7467 8.70194C28.5037 7.94489 29.4683 7.42933 30.5183 7.22046C31.5684 7.01158 32.6568 7.11879 33.646 7.5285C34.6351 7.93822 35.4805 8.63205 36.0754 9.52225C36.6702 10.4125 36.9876 11.459 36.9876 12.5297C36.9876 13.9654 36.4173 15.3423 35.4021 16.3574C34.387 17.3726 33.0101 17.9429 31.5744 17.9429Z" fill="#CAC5C5"/>
<path d="M24.8377 20.5421C24.7745 20.5421 24.7112 20.5421 24.648 20.535C24.2244 20.5017 23.8152 20.3665 23.4551 20.141C23.095 19.9154 22.7948 19.6062 22.5799 19.2397C22.543 19.1751 22.5192 19.1039 22.5098 19.0301C22.5005 18.9563 22.5057 18.8814 22.5253 18.8097C22.5448 18.7379 22.5783 18.6707 22.6239 18.6119C22.6694 18.5531 22.7261 18.5039 22.7907 18.467C22.8552 18.4301 22.9265 18.4062 23.0002 18.3969C23.074 18.3875 23.1489 18.3927 23.2207 18.4123C23.2924 18.4319 23.3596 18.4654 23.4184 18.5109C23.4772 18.5564 23.5265 18.6131 23.5634 18.6777C23.6864 18.884 23.8566 19.058 24.0601 19.1856C24.2636 19.3131 24.4945 19.3904 24.7337 19.4111C24.9941 19.4379 25.2565 19.3851 25.4863 19.2597C25.716 19.1343 25.9024 18.9421 26.0206 18.7086C26.0536 18.6419 26.0993 18.5824 26.1553 18.5333C26.2112 18.4843 26.2763 18.4468 26.3467 18.4229C26.4172 18.3991 26.4916 18.3893 26.5659 18.3942C26.6401 18.3991 26.7126 18.4186 26.7793 18.4515C26.846 18.4844 26.9056 18.5302 26.9546 18.5861C27.0036 18.6421 27.0411 18.7071 27.065 18.7776C27.0889 18.848 27.0986 18.9225 27.0937 18.9967C27.0888 19.0709 27.0693 19.1435 27.0364 19.2102C26.8316 19.6159 26.5168 19.9559 26.1281 20.1914C25.7393 20.4269 25.2922 20.5484 24.8377 20.5421Z" fill="#00042D"/>
<defs>
<linearGradient id="paint0_linear_273_722" x1="17.6528" y1="32.8298" x2="28.7772" y2="3.22618" gradientUnits="userSpaceOnUse">
<stop stop-color="#5C1CB2"/>
<stop offset="0.09" stop-color="#7118B4"/>
<stop offset="0.28" stop-color="#A90FB9"/>
<stop offset="0.55" stop-color="#FF00C1"/>
<stop offset="0.62" stop-color="#FE15AD"/>
<stop offset="0.77" stop-color="#FA4D7B"/>
<stop offset="0.98" stop-color="#F4A52A"/>
<stop offset="1" stop-color="#F4AC24"/>
</linearGradient>
<linearGradient id="paint1_linear_273_722" x1="24.7689" y1="16.4705" x2="24.7689" y2="32.3407" gradientUnits="userSpaceOnUse">
<stop stop-color="#5CBFFC" stop-opacity="0"/>
<stop offset="0.32" stop-color="#5C81E0" stop-opacity="0.38"/>
<stop offset="0.64" stop-color="#5C4BC7" stop-opacity="0.71"/>
<stop offset="0.88" stop-color="#5C29B8" stop-opacity="0.92"/>
<stop offset="1" stop-color="#5C1CB2"/>
</linearGradient>
<linearGradient id="paint2_linear_273_722" x1="22.3004" y1="33.9804" x2="32.5073" y2="6.82005" gradientUnits="userSpaceOnUse">
<stop stop-color="#5C1CB2"/>
<stop offset="0.09" stop-color="#7118B4"/>
<stop offset="0.28" stop-color="#A90FB9"/>
<stop offset="0.55" stop-color="#FF00C1"/>
<stop offset="0.62" stop-color="#FE15AD"/>
<stop offset="0.77" stop-color="#FA4D7B"/>
<stop offset="0.98" stop-color="#F4A52A"/>
<stop offset="1" stop-color="#F4AC24"/>
</linearGradient>
<linearGradient id="paint3_linear_273_722" x1="23.2347" y1="32.7159" x2="33.96" y2="4.17452" gradientUnits="userSpaceOnUse">
<stop stop-color="#5C1CB2"/>
<stop offset="0.09" stop-color="#7118B4"/>
<stop offset="0.28" stop-color="#A90FB9"/>
<stop offset="0.55" stop-color="#FF00C1"/>
<stop offset="0.62" stop-color="#FE15AD"/>
<stop offset="0.77" stop-color="#FA4D7B"/>
<stop offset="0.98" stop-color="#F4A52A"/>
<stop offset="1" stop-color="#F4AC24"/>
</linearGradient>
<linearGradient id="paint4_linear_273_722" x1="24.6804" y1="29.8274" x2="24.7169" y2="28.4435" gradientUnits="userSpaceOnUse">
<stop stop-color="#5CBFFC" stop-opacity="0"/>
<stop offset="0.32" stop-color="#5C81E0" stop-opacity="0.38"/>
<stop offset="0.64" stop-color="#5C4BC7" stop-opacity="0.71"/>
<stop offset="0.88" stop-color="#5C29B8" stop-opacity="0.92"/>
<stop offset="1" stop-color="#5C1CB2"/>
</linearGradient>
</defs>
</svg>