<svg width="1440" height="833" viewBox="0 0 1440 833" fill="none" xmlns="http://www.w3.org/2000/svg">
<circle opacity="0.5" cx="76.5" cy="436.5" r="74.5" fill="#FDA53D"/>
<circle opacity="0.5" cx="1279.5" cy="392.5" r="236.5" fill="#FFBF74"/>
<g filter="url(#filter0_b_233_255)">
<rect x="0.00012207" width="1440" height="889" fill="url(#paint0_linear_233_255)" fill-opacity="0.1"/>
</g>
<rect x="38.8364" y="-113" width="177.874" height="177.874" rx="30" transform="rotate(20 38.8364 -113)" fill="#FDA53D"/>
<g filter="url(#filter1_f_233_255)">
<rect x="877" y="76.6375" width="103.566" height="103.566" rx="30" transform="rotate(-16.6288 877 76.6375)" fill="#FDA53D"/>
</g>
<path opacity="0.6" d="M1791.43 957.274C1789.6 1008.31 1751.6 1052.36 1699.26 1060C1680.24 1062.8 1660.82 1060.44 1643.02 1053.17C1631.11 1091.64 1598.05 1121.84 1555.55 1128.05C1503.8 1135.6 1455.29 1105.07 1438.39 1057.62C1434.6 1058.6 1430.77 1059.38 1426.9 1059.94C1380.88 1066.66 1337.41 1043.27 1316.47 1004.62C1299.05 1039.8 1262.99 1064.18 1221.04 1064.66C1193.96 1064.97 1169.1 1055.26 1149.97 1038.98C1127.91 1066.15 1094.26 1083.53 1056.54 1083.53C1009.29 1083.53 968.427 1056.27 948.75 1016.64C930.751 1050.05 895.638 1072.94 855 1073.41C827.206 1073.73 801.76 1063.49 782.441 1046.44C766.288 1063.95 744.278 1076.25 718.871 1079.96C699.853 1082.76 680.433 1080.4 662.639 1073.13C650.723 1111.59 617.659 1141.8 575.166 1148C525.051 1155.32 477.975 1126.92 459.706 1082.03C444.687 1089.89 428.018 1094.08 411.067 1094.25C373.699 1094.68 340.581 1076.04 320.91 1047.37C301.419 1069.87 272.774 1084.25 240.661 1084.63C213.576 1084.93 188.715 1075.22 169.588 1058.95C147.53 1086.12 113.879 1103.49 76.1592 1103.49C28.9064 1103.49 -11.9537 1076.24 -31.6308 1036.6C-49.6297 1070.01 -84.7425 1092.91 -125.381 1093.37C-166.982 1093.85 -203.349 1070.69 -221.735 1036.4C-241.182 1057.79 -269.113 1071.36 -300.301 1071.72C-304.21 1071.76 -308.119 1071.59 -312.01 1071.21C-321.312 1120.71 -364.472 1158.43 -416.759 1159.03C-459.708 1159.52 -497.078 1134.84 -514.839 1098.7C-531.282 1108.66 -550.098 1114.01 -569.319 1114.21C-622.207 1114.82 -666.613 1077.23 -676.379 1027.1C-729.177 1020.64 -770.362 975.976 -770.993 921.322C-771.675 861.763 -723.948 812.927 -664.384 812.243C-647.739 812.031 -631.272 815.695 -616.287 822.945C-596.787 798.668 -566.978 782.985 -533.413 782.603C-509.678 782.3 -486.512 789.869 -467.536 804.127C-467.255 803.817 -466.964 803.519 -466.683 803.209C-448.656 769.873 -413.586 747.041 -373.003 746.574C-356.358 746.367 -339.893 750.032 -324.908 757.28C-305.408 733.005 -275.597 717.319 -242.033 716.934C-218.299 716.633 -195.134 724.204 -176.158 738.463C-156.658 716.248 -128.177 702.072 -96.3065 701.71C-76.5916 701.454 -57.1867 706.631 -40.2198 716.674C-23.533 709.994 -5.44083 707.594 12.4105 709.69C30.2618 711.786 47.3056 718.313 61.9909 728.677C80.6285 715.179 103.096 707.999 126.107 708.187C149.117 708.374 171.465 715.919 189.88 729.718C209.38 707.503 237.86 693.33 269.732 692.966C289.449 692.708 308.856 697.885 325.824 707.93C338.18 702.974 351.349 700.36 364.66 700.221C408.898 699.708 447.203 725.924 464.268 763.846C469.049 764.556 473.777 765.591 478.418 766.944C480.727 766.452 483.045 766.008 485.411 765.661C498.394 763.758 511.615 764.248 524.421 767.106C543.921 742.758 573.75 727.008 607.376 726.619C624.021 726.411 640.487 730.075 655.474 737.321C674.974 713.049 704.784 697.364 738.349 696.978C762.083 696.677 785.248 704.247 804.224 718.505C823.718 696.289 852.204 682.117 884.075 681.755C903.79 681.495 923.196 686.672 940.162 696.717C956.849 690.038 974.941 687.637 992.792 689.733C1010.64 691.83 1027.69 698.357 1042.37 708.721C1061.01 695.223 1083.48 688.043 1106.49 688.23C1129.5 688.417 1151.85 695.962 1170.26 709.762C1189.76 687.545 1218.24 673.375 1250.11 673.009C1269.83 672.75 1289.24 677.926 1306.21 687.972C1318.56 683.018 1331.73 680.404 1345.04 680.263C1391.66 679.727 1431.71 708.855 1447.23 750.101C1453.28 748.097 1459.49 746.626 1465.79 745.706C1497.33 741.096 1527.68 750.658 1550.39 769.568C1566.92 752.529 1588.62 741.444 1612.11 738.043C1645.33 733.189 1677.22 744.041 1700.27 764.984C1713.94 755.484 1729.63 749.298 1746.1 746.914C1805.04 738.311 1859.8 779.115 1868.41 838.052C1876.3 892.133 1842.58 942.668 1791.43 957.274Z" fill="url(#paint1_linear_233_255)"/>
<path opacity="0.6" d="M1650.1 692.958C1650.6 746.883 1612.43 795.183 1557.31 805.767C1537.29 809.637 1516.6 808.087 1497.37 801.277C1486.59 842.427 1452.99 875.885 1408.24 884.481C1353.74 894.941 1300.85 865.071 1280.66 815.835C1276.69 817.055 1272.67 818.06 1268.59 818.843C1220.14 828.146 1172.93 805.559 1148.88 765.81C1132.09 803.756 1095.04 831.212 1050.59 833.748C1039.23 834.393 1027.83 833.343 1016.78 830.632C1002.4 854.732 976.581 871.384 946.446 872.754C930.925 873.48 915.497 869.989 901.801 862.651C885.392 886.876 859.694 904.859 828.597 910.837C777.123 920.715 727.107 894.611 704.7 850.204C691.574 856.278 677.416 859.812 662.975 860.618C620.354 863.042 581.871 841.924 560.263 808.62C541.061 837.849 508.677 857.955 470.954 860.106C467.66 860.291 464.392 860.32 461.152 860.235C448.538 906.154 407.632 941.063 357.237 943.933C311.729 946.521 270.935 922.282 250.366 885.016C233.398 896.318 213.715 902.874 193.359 904.003C164.526 905.641 137.61 896.493 116.514 880.099C105.855 884.019 94.6727 886.337 83.3333 886.978C39.2544 889.485 -0.408772 866.812 -21.5419 831.517C-41.1278 855.018 -70.0852 870.689 -103.134 872.57C-107.278 872.804 -111.432 872.813 -115.578 872.598C-123.057 925.263 -167.001 967.135 -222.403 970.293C-267.91 972.878 -308.706 948.641 -329.268 911.375C-346.236 922.677 -365.92 929.232 -386.276 930.361C-442.309 933.551 -491.185 896.044 -503.946 843.631C-560.229 839.362 -606.032 794.24 -609.321 736.612C-612.897 673.815 -564.643 619.997 -501.536 616.405C-483.908 615.378 -466.282 618.449 -450.04 625.375C-430.531 598.828 -399.686 580.849 -364.121 578.823C-338.991 577.353 -314.078 584.219 -293.248 598.354C-292.97 598.015 -292.675 597.687 -292.391 597.343C-274.877 561.311 -238.795 535.534 -195.808 533.085C-178.178 532.065 -160.551 535.139 -144.307 542.065C-124.792 515.51 -93.9458 497.536 -58.3776 495.511C-33.2515 494.04 -8.34211 500.9 12.4882 515.027C32.0856 490.652 61.5909 474.33 95.3746 472.408C116.25 471.185 137.061 475.711 155.542 485.494C172.914 477.643 191.967 474.239 210.983 475.588C229.999 476.938 248.38 482.999 264.469 493.224C282.355 479.037 304.668 470.027 329.228 468.625C354.363 467.155 379.28 474.025 400.11 488.166C419.709 463.791 449.217 447.465 482.994 445.546C504.683 444.31 525.304 449.17 543.172 458.631C557.251 452.276 572.466 448.82 587.908 448.469C603.351 448.119 618.707 450.881 633.059 456.591C649.129 449.122 666.708 445.465 684.423 445.908C702.139 446.351 719.513 450.88 735.189 459.143C752.562 451.292 771.615 447.887 790.631 449.236C809.647 450.586 828.029 456.647 844.118 466.873C862.002 452.688 884.317 443.675 908.88 442.274C934.009 440.807 958.921 447.674 979.748 461.81C999.345 437.435 1028.86 421.108 1062.63 419.189C1084.32 417.956 1104.94 422.814 1122.81 432.274C1135.68 426.444 1149.51 423.051 1163.62 422.268C1213.01 419.445 1256.86 448.25 1275.29 491.011C1281.61 488.603 1288.12 486.753 1294.76 485.481C1327.97 479.1 1360.6 487.718 1385.59 506.569C1402.32 487.78 1424.79 475.042 1449.5 470.336C1484.48 463.615 1518.81 473.527 1544.24 494.504C1558.3 483.817 1574.64 476.537 1591.98 473.233C1654.04 461.315 1714.05 501.713 1725.99 563.481C1736.95 620.15 1703.62 675.084 1650.1 692.958Z" fill="url(#paint2_linear_233_255)"/>
<path d="M1964.44 1198.84C1896.14 1198.84 1837.88 1156.03 1814.91 1095.8C1800.1 1104.93 1783.35 1110.44 1766.01 1111.88C1748.67 1113.32 1731.23 1110.66 1715.12 1104.1C1702.89 1143.57 1668.96 1174.57 1625.35 1180.93C1572.25 1188.68 1522.47 1157.35 1505.13 1108.66C1501.25 1109.67 1497.31 1110.47 1493.34 1111.05C1446.12 1117.94 1401.51 1093.93 1380.03 1054.28C1362.14 1090.38 1325.15 1115.4 1282.1 1115.89C1254.31 1116.21 1228.8 1106.25 1209.17 1089.54C1186.54 1117.42 1152.01 1135.26 1113.3 1135.26C1064.81 1135.26 1022.88 1107.29 1002.7 1066.61C984.225 1100.89 948.196 1124.39 906.494 1124.87C863.805 1125.36 826.484 1101.6 807.623 1066.4C787.67 1088.35 759.007 1102.28 727.002 1102.65C722.99 1102.7 718.978 1102.52 714.985 1102.13C705.442 1152.92 661.153 1191.63 607.499 1192.25C563.43 1192.75 525.082 1167.43 506.853 1130.34C489.981 1140.56 470.675 1146.05 450.952 1146.25C396.683 1146.88 351.116 1108.31 341.091 1056.87C286.914 1050.24 244.654 1004.41 244.007 948.332C243.305 887.212 292.283 837.096 353.402 836.398C370.482 836.183 387.377 839.943 402.753 847.381C422.763 822.467 453.353 806.378 487.796 805.982C513.141 805.692 536.578 813.967 555.398 828.07C555.682 827.749 555.982 827.448 556.273 827.128C574.769 792.922 610.759 769.492 652.398 769.016C669.478 768.798 686.374 772.558 701.75 779.999C721.766 755.086 752.349 738.997 786.791 738.596C812.139 738.307 835.573 746.581 854.392 760.69C874.394 737.895 903.62 723.352 936.335 722.979C957.335 722.735 977.039 728.369 993.885 738.335C1011.01 731.48 1029.57 729.016 1047.89 731.167C1066.21 733.317 1083.7 740.014 1098.76 750.649C1116.66 737.667 1138.61 729.899 1162.4 729.626C1187.75 729.334 1211.18 737.611 1230 751.72C1250 728.922 1279.22 714.379 1311.94 714.008C1332.94 713.765 1352.65 719.394 1369.49 729.365C1382.17 724.278 1395.68 721.595 1409.34 721.453C1457.19 720.898 1498.28 750.792 1514.21 793.119C1520.41 791.058 1526.78 789.547 1533.25 788.605C1565.63 783.878 1596.75 793.687 1620.06 813.089C1636.46 796.22 1658.32 784.396 1683.4 780.734C1717.48 775.755 1750.21 786.893 1773.85 808.379C1787.88 798.629 1803.98 792.278 1820.89 789.828C1880.23 781.166 1935.41 821.316 1945.81 879.954C1951.99 879.224 1958.21 878.852 1964.44 878.84C2052.8 878.84 2124.44 950.472 2124.44 1038.84C2124.44 1127.2 2052.8 1198.84 1964.44 1198.84Z" fill="white"/>
<defs>
<filter id="filter0_b_233_255" x="-150" y="-150" width="1740" height="1189" filterUnits="userSpaceOnUse" color-interpolation-filters="sRGB">
<feFlood flood-opacity="0" result="BackgroundImageFix"/>
<feGaussianBlur in="BackgroundImageFix" stdDeviation="75"/>
<feComposite in2="SourceAlpha" operator="in" result="effect1_backgroundBlur_233_255"/>
<feBlend mode="normal" in="SourceGraphic" in2="effect1_backgroundBlur_233_255" result="shape"/>
</filter>
<filter id="filter1_f_233_255" x="849.322" y="19.3225" width="184.227" height="184.227" filterUnits="userSpaceOnUse" color-interpolation-filters="sRGB">
<feFlood flood-opacity="0" result="BackgroundImageFix"/>
<feBlend mode="normal" in="SourceGraphic" in2="BackgroundImageFix" result="shape"/>
<feGaussianBlur stdDeviation="17.5" result="effect1_foregroundBlur_233_255"/>
</filter>
<linearGradient id="paint0_linear_233_255" x1="720" y1="287.332" x2="720" y2="847.953" gradientUnits="userSpaceOnUse">
<stop stop-color="#9D4CDC"/>
<stop offset="1" stop-color="white" stop-opacity="0"/>
</linearGradient>
<linearGradient id="paint1_linear_233_255" x1="549.276" y1="744.701" x2="549.276" y2="1204.63" gradientUnits="userSpaceOnUse">
<stop stop-color="white"/>
<stop offset="0.2" stop-color="#FBFDFE"/>
<stop offset="0.4" stop-color="#EFF8FA"/>
<stop offset="0.59" stop-color="#DCEFF4"/>
<stop offset="0.78" stop-color="#C0E3EB"/>
<stop offset="0.97" stop-color="#9DD4E0"/>
<stop offset="1" stop-color="#97D1DE"/>
</linearGradient>
<linearGradient id="paint2_linear_233_255" x1="551.503" y1="486.261" x2="569.259" y2="877.277" gradientUnits="userSpaceOnUse">
<stop stop-color="white"/>
<stop offset="0.2" stop-color="#FBFDFE"/>
<stop offset="0.4" stop-color="#EFF8FA"/>
<stop offset="0.59" stop-color="#DCEFF4"/>
<stop offset="0.78" stop-color="#C0E3EB"/>
<stop offset="0.97" stop-color="#9DD4E0"/>
<stop offset="1" stop-color="#97D1DE"/>
</linearGradient>
</defs>
</svg>